# xmcd
#
# Track frame offsets:
#	150
#	17527
#	30735
#	49632
#	63929
#	77629
#	92128
#	106243
#	123612
#	141003
#	155134
#	170477
#	183847
#	198855
#	212445
#	230753
#	243502
#	258716
#	274506
#	290386
#
# Disc length: 4068 seconds
#
# Revision: 0
# Processed by: cddbd v1.5.2PL0 Copyright (c) Steve Scherf et al.
# Submitted via: EasyCDDAExtractor 10.0.6.1
#
DISCID=160fe214
DTITLE=Various Artist - PARA LOS ENAMORADOS DE SIEMPRE
DYEAR=1900
DGENRE=Latin
TTITLE0=YNDIO - HERIDA DE AMOR
TTITLE1=LOS PASTELES VERDES - RECUERDOS DE UNA NOCHE
TTITLE2=LOS PASTELES VERDES - HIPOCRESIA
TTITLE3=LOS PASTELES VERDES - TE AMO Y NO SOY CORRESPONDIDO
TTITLE4=LOS GOLPES - OLVIDARTE NUNCA
TTITLE5=LOS GOLPES - CON LA MANO EN LA BIBLIA
TTITLE6=LOS GOLPES - POR LO MAS SAGRADO
TTITLE7=LOS GOLPES - VETE YA
TTITLE8=LOS GALOS - COMO DESEO SER TU AMOR
TTITLE9=LOS GALOS - PERDONAME SI ME VES LLORAR
TTITLE10=LOS GALOS - AMOR, AMOR TE NECESITO
TTITLE11=LOS GALOS - HISTORIA DE UN AMOR
TTITLE12=LOS PASTELES VERDES - MI AMOR IMPOSIBLE
TTITLE13=LOS PASTELES VERDES - EL PRESIDIARIO
TTITLE14=LOS ANGELES NEGROS - Y VOLVERE
TTITLE15=LOS ANGELES NEGROS - COMO QUISIERA DECIRTE
TTITLE16=LOS ANGELES NEGROS - MURIO LA FLOR
TTITLE17=LOS ANGELES NEGROS - QUIERO MAS DE TI
TTITLE18=LOS GOLPES - ESA MUJER
TTITLE19=LOS PASTELES VERDES - ESCLAVO Y AMO
EXTD=
EXTT0=
EXTT1=
EXTT2=
EXTT3=
EXTT4=
EXTT5=
EXTT6=
EXTT7=
EXTT8=
EXTT9=
EXTT10=
EXTT11=
EXTT12=
EXTT13=
EXTT14=
EXTT15=
EXTT16=
EXTT17=
EXTT18=
EXTT19=
PLAYORDER=
